<?xml version="1.0" encoding="utf-8"?>
<!-- Generator: Adobe Illustrator 23.0.6, SVG Export Plug-In . SVG Version: 6.00 Build 0)  -->
<svg version="1.1" id="图层_2" xmlns="http://www.w3.org/2000/svg" xmlns:xlink="http://www.w3.org/1999/xlink" x="0px" y="0px"
	 viewBox="0 0 200 200" style="enable-background:new 0 0 200 200;" xml:space="preserve">
<style type="text/css">
	.st0{fill:#49A879;}
</style>
<path class="st0" d="M158.5,71.6C149.5,48,126.7,31.3,100,31.3S50.5,48,41.6,71.6C24.9,76,12.5,91.3,12.5,109.4
	c0,21.6,17.5,39.1,39,39.1h7.8c0.9,0,1.6-0.7,1.6-1.6v-11.7c0-0.9-0.7-1.6-1.6-1.6h-7.8c-6.6,0-12.8-2.6-17.4-7.4
	c-4.6-4.7-7-11.1-6.8-17.7c0.2-5.2,1.9-10,5.1-14.1c3.3-4.2,7.8-7.2,12.9-8.5l7.4-1.9l2.7-7.1c1.7-4.5,4-8.6,7-12.4
	c2.9-3.8,6.4-7,10.2-9.7c8-5.6,17.5-8.6,27.3-8.6s19.3,3,27.3,8.6c3.9,2.7,7.3,6,10.2,9.7c2.9,3.8,5.3,7.9,7,12.4l2.7,7.1l7.4,2
	c10.6,2.9,18,12.5,18,23.5c0,6.5-2.5,12.6-7.1,17.1s-10.6,7.1-17.1,7.1h-7.8c-0.9,0-1.6,0.7-1.6,1.6v11.7c0,0.9,0.7,1.6,1.6,1.6h7.8
	c21.6,0,39-17.5,39-39.1C187.5,91.3,175.2,76,158.5,71.6z"/>
<g>
	<path class="st0" d="M81.5,97.5h45.7c1.9,0,1.9,3.4,0,3.4c-2.4,0-4.3,2.3-4.3,5.1c0,2.8,1.9,5.1,4.3,5.1c1.9,0,1.9,3.4,0,3.4H81.5
		c-3.9,0-7.1-3.8-7.1-8.6S77.5,97.5,81.5,97.5z M76.8,123.1H121c3.9,0,7.1,3.8,7.1,8.6c0,4.7-3.2,8.6-7.1,8.6H76.8
		c-1.9,0-1.9-3.4,0-3.4c2.4,0,4.3-2.3,4.3-5.1c0-2.8-1.9-5.1-4.3-5.1C74.8,126.5,74.8,123.1,76.8,123.1L76.8,123.1z M81.5,148.7
		h45.7c1.9,0,1.9,3.4,0,3.4c-2.4,0-4.3,2.3-4.3,5.1c0,2.8,1.9,5.1,4.3,5.1c1.9,0,1.9,3.4,0,3.4H81.5c-3.9,0-7.1-3.8-7.1-8.6
		S77.5,148.7,81.5,148.7C81.5,148.7,81.5,148.7,81.5,148.7z M81.5,100.9c-2.4,0-4.3,2.3-4.3,5.1c0,2.8,1.9,5.1,4.3,5.1h40
		c-0.9-1.5-1.4-3.3-1.4-5.1c0-1.9,0.5-3.7,1.4-5.1H81.5z M83.9,131.7c0,1.9-0.5,3.7-1.4,5.1H121c2.4,0,4.3-2.3,4.3-5.1
		c0-2.8-1.9-5.1-4.3-5.1H82.5C83.4,128,83.9,129.8,83.9,131.7z M81.5,152.1c-2.4,0-4.3,2.3-4.3,5.1c0,2.8,1.9,5.1,4.3,5.1h40
		c-0.9-1.5-1.4-3.3-1.4-5.1c0-1.9,0.5-3.7,1.4-5.1H81.5L81.5,152.1z"/>
	<path class="st0" d="M81.5,168.4c-5.3,0-9.6-5-9.6-11.1c0-6.1,4.3-11.1,9.6-11.1h45.7c2.2,0,3.9,1.8,3.9,4.2c0,2.4-1.7,4.2-3.9,4.2
		c-0.8,0-1.8,1.1-1.8,2.6s0.9,2.6,1.8,2.6c2.2,0,3.9,1.8,3.9,4.2c0,2.4-1.7,4.2-3.9,4.2H81.5C81.5,168.4,81.5,168.4,81.5,168.4z
		 M81.5,154.6c-0.8,0-1.8,1.1-1.8,2.6s0.9,2.6,1.8,2.6h36.3c-0.2-0.9-0.3-1.7-0.3-2.6c0-0.9,0.1-1.8,0.3-2.6H81.5z M121,142.8H76.8
		c-2.2,0-3.9-1.8-3.9-4.2c0-2.4,1.7-4.2,3.9-4.2c0.8,0,1.8-1.1,1.8-2.6s-0.9-2.6-1.8-2.6c-2.2,0-3.9-1.8-3.9-4.2
		c0-1,0.3-1.9,0.8-2.7c0.7-1,1.9-1.5,3.1-1.5H121c5.3,0,9.6,5,9.6,11.1S126.4,142.8,121,142.8z M86.1,134.3H121
		c0.8,0,1.8-1.1,1.8-2.6s-0.9-2.6-1.8-2.6H86.1c0.2,0.9,0.3,1.7,0.3,2.6C86.4,132.6,86.3,133.5,86.1,134.3z M127.2,117.2H81.5
		c-5.3,0-9.6-5-9.6-11.1c0-6.1,4.3-11.1,9.6-11.1h45.7c2.2,0,3.9,1.8,3.9,4.2c0,1-0.3,1.9-0.8,2.7c-0.7,1-1.9,1.5-3.1,1.5
		c-0.8,0-1.8,1.1-1.8,2.6s0.9,2.6,1.8,2.6c2.2,0,3.9,1.8,3.9,4.2C131.1,115.3,129.4,117.2,127.2,117.2z M81.5,103.4
		c-0.8,0-1.8,1.1-1.8,2.6s0.9,2.6,1.8,2.6h36.3c-0.2-0.9-0.3-1.7-0.3-2.6c0-0.9,0.1-1.8,0.3-2.6H81.5z"/>
</g>
</svg>
